<?xml version="1.0" encoding="UTF-8"?>
<!DOCTYPE svg PUBLIC "-//W3C//DTD SVG 1.1//EN" "http://www.w3.org/Graphics/SVG/1.1/DTD/svg11.dtd">
<!-- Creator: CorelDRAW 2021 (64-Bit) -->
<svg xmlns="http://www.w3.org/2000/svg" xml:space="preserve" width="120px" height="120px" version="1.1" style="shape-rendering:geometricPrecision; text-rendering:geometricPrecision; image-rendering:optimizeQuality; fill-rule:evenodd; clip-rule:evenodd"
viewBox="0 0 120 120"
 xmlns:xlink="http://www.w3.org/1999/xlink"
 xmlns:xodm="http://www.corel.com/coreldraw/odm/2003">
 <defs>
  <style type="text/css">
   <![CDATA[
    .str0 {stroke:#313130;stroke-width:0.9;stroke-miterlimit:22.9256}
    .fil24 {fill:#FEFEFE}
    .fil80 {fill:#FEFEFE}
    .fil78 {fill:#929292}
    .fil77 {fill:#636363}
    .fil76 {fill:#636262}
    .fil75 {fill:#626261}
    .fil74 {fill:#616160}
    .fil73 {fill:#60605F}
    .fil72 {fill:#5F5F5E}
    .fil71 {fill:#5E5E5D}
    .fil70 {fill:#5C5C5B}
    .fil69 {fill:#5B5B5B}
    .fil68 {fill:#5A5A5A}
    .fil67 {fill:#5A5959}
    .fil66 {fill:#595858}
    .fil65 {fill:#585757}
    .fil64 {fill:#575656}
    .fil63 {fill:#565655}
    .fil62 {fill:#555554}
    .fil61 {fill:#545453}
    .fil60 {fill:#535352}
    .fil59 {fill:#525251}
    .fil58 {fill:#515150}
    .fil57 {fill:#4F4F4E}
    .fil56 {fill:#4E4E4D}
    .fil55 {fill:#4D4D4C}
    .fil54 {fill:#4C4C4B}
    .fil53 {fill:#4B4B4A}
    .fil52 {fill:#4A4A49}
    .fil51 {fill:#494948}
    .fil50 {fill:#484847}
    .fil49 {fill:#474746}
    .fil48 {fill:#474646}
    .fil47 {fill:#464545}
    .fil46 {fill:#454444}
    .fil45 {fill:#434242}
    .fil44 {fill:#424241}
    .fil43 {fill:#414140}
    .fil42 {fill:#40403F}
    .fil41 {fill:#3F3F3E}
    .fil40 {fill:#3E3E3D}
    .fil39 {fill:#3D3D3C}
    .fil38 {fill:#3C3C3B}
    .fil37 {fill:#3B3B3A}
    .fil36 {fill:#3A3A39}
    .fil35 {fill:#393938}
    .fil34 {fill:#383837}
    .fil33 {fill:#373736}
    .fil32 {fill:#353534}
    .fil31 {fill:#343433}
    .fil30 {fill:#333332}
    .fil29 {fill:#323231}
    .fil28 {fill:#313130}
    .fil27 {fill:#30302F}
    .fil0 {fill:#2F2F2E}
    .fil22 {fill:#FBBA00}
    .fil21 {fill:#FAB800}
    .fil20 {fill:#FAB600}
    .fil19 {fill:#F9B500}
    .fil18 {fill:#F9B200}
    .fil17 {fill:#F9B101}
    .fil16 {fill:#F8AF03}
    .fil15 {fill:#F8AD03}
    .fil14 {fill:#F8AB04}
    .fil13 {fill:#F7A906}
    .fil12 {fill:#F7A806}
    .fil11 {fill:#F6A508}
    .fil10 {fill:#F6A409}
    .fil9 {fill:#F6A10B}
    .fil8 {fill:#F5A00C}
    .fil7 {fill:#F59E0D}
    .fil6 {fill:#F49C0F}
    .fil5 {fill:#F49A10}
    .fil4 {fill:#F49811}
    .fil3 {fill:#F39712}
    .fil2 {fill:#F39413}
    .fil1 {fill:#F39314}
    .fil79 {fill:#FEFEFE;fill-rule:nonzero}
    .fil82 {fill:#FBBA00;fill-rule:nonzero}
    .fil81 {fill:#F39314;fill-rule:nonzero}
    .fil85 {fill:#DB6024;fill-rule:nonzero}
    .fil23 {fill:#F39817;fill-opacity:0.501961}
    .fil25 {fill:url(#id8)}
    .fil87 {fill:url(#id9)}
    .fil86 {fill:url(#id10)}
    .fil26 {fill:url(#id11)}
    .fil84 {fill:url(#id12);fill-rule:nonzero}
    .fil83 {fill:url(#id13);fill-rule:nonzero}
   ]]>
  </style>
    <mask id="id0">
  <linearGradient id="id1" gradientUnits="userSpaceOnUse" x1="7.57" y1="107.27" x2="25.84" y2="97.46">
   <stop offset="0" style="stop-opacity:1; stop-color:white"/>
   <stop offset="1" style="stop-opacity:0; stop-color:white"/>
  </linearGradient>
     <rect style="fill:url(#id1)" x="15.86" y="94.55" width="12.19" height="8.97"/>
    </mask>
    <mask id="id2">
  <linearGradient id="id3" gradientUnits="userSpaceOnUse" x1="112.42" y1="107.27" x2="94.15" y2="97.46">
   <stop offset="0" style="stop-opacity:1; stop-color:white"/>
   <stop offset="1" style="stop-opacity:0; stop-color:white"/>
  </linearGradient>
     <rect style="fill:url(#id3)" x="91.94" y="94.55" width="12.19" height="8.97"/>
    </mask>
    <mask id="id4">
  <linearGradient id="id5" gradientUnits="userSpaceOnUse" x1="56.7" y1="9.9" x2="61.36" y2="62.53">
   <stop offset="0" style="stop-opacity:1; stop-color:white"/>
   <stop offset="1" style="stop-opacity:0; stop-color:white"/>
  </linearGradient>
     <rect style="fill:url(#id5)" x="15.8" y="10.41" width="86.94" height="86.36"/>
    </mask>
    <mask id="id6">
  <linearGradient id="id7" gradientUnits="userSpaceOnUse" x1="48.52" y1="51.5" x2="56.29" y2="50.64">
   <stop offset="0" style="stop-opacity:1; stop-color:white"/>
   <stop offset="1" style="stop-opacity:0; stop-color:white"/>
  </linearGradient>
     <rect style="fill:url(#id7)" x="47" y="44.87" width="13.17" height="9.65"/>
    </mask>
  <linearGradient id="id8" gradientUnits="userSpaceOnUse" x1="-3.92" y1="52.74" x2="38.49" y2="91.24">
   <stop offset="0" style="stop-opacity:1; stop-color:#2B2A29"/>
   <stop offset="1" style="stop-opacity:1; stop-color:#5B5B5B"/>
  </linearGradient>
  <linearGradient id="id9" gradientUnits="userSpaceOnUse" x1="4.75" y1="61.72" x2="14.2" y2="71.89">
   <stop offset="0" style="stop-opacity:1; stop-color:#434242"/>
   <stop offset="1" style="stop-opacity:1; stop-color:#5B5B5B"/>
  </linearGradient>
  <linearGradient id="id10" gradientUnits="userSpaceOnUse" x1="114.74" y1="61.13" x2="108.29" y2="71.29">
   <stop offset="0" style="stop-opacity:1; stop-color:#5B5B5B"/>
   <stop offset="1" style="stop-opacity:1; stop-color:#434242"/>
  </linearGradient>
  <linearGradient id="id11" gradientUnits="userSpaceOnUse" xlink:href="#id8" x1="53.84" y1="57.85" x2="99.54" y2="97.01">
  </linearGradient>
  <linearGradient id="id12" gradientUnits="userSpaceOnUse" x1="48.18" y1="54.55" x2="70.29" y2="54.55">
   <stop offset="0" style="stop-opacity:1; stop-color:#FECC00"/>
   <stop offset="0.278431" style="stop-opacity:1; stop-color:#FECC00"/>
   <stop offset="0.709804" style="stop-opacity:1; stop-color:#D58117"/>
   <stop offset="1" style="stop-opacity:1; stop-color:#D58117"/>
  </linearGradient>
  <linearGradient id="id13" gradientUnits="userSpaceOnUse" x1="47.06" y1="47.78" x2="59.64" y2="50.48">
   <stop offset="0" style="stop-opacity:1; stop-color:#FFFAD7"/>
   <stop offset="0.258824" style="stop-opacity:1; stop-color:#FFFAD7"/>
   <stop offset="0.709804" style="stop-opacity:1; stop-color:#FFED00"/>
   <stop offset="1" style="stop-opacity:1; stop-color:#FFED00"/>
  </linearGradient>
 </defs>
<symbol id="Fm4-2259-0" viewBox="644.24 -1802.51 338.15 341.72">
 <path class="fil0" d="M813.32 -1460.79c93.12,0 169.07,-76.75 169.07,-170.86 0,-94.09 -75.95,-170.86 -169.07,-170.86 -93.13,0 -169.08,76.77 -169.08,170.86 0,94.11 75.95,170.86 169.08,170.86z"/>
</symbol>
 <g id="Слой_x0020_1">
  <metadata id="CorelCorpID_0Corel-Layer"/>
  <g id="_1690262317440">
   <path class="fil1" d="M60 103.66c-8.72,6.92 -44,5.32 -45.75,1.31 -1.92,-3.87 7.16,-9.41 11.38,-11.44l0 0 3.29 -1.41c8.74,7.2 19.59,11.89 31.08,11.54z"/>
   <g>
    <path class="fil2" d="M58.88 103.66c-8.44,6.71 -42.62,5.16 -44.32,1.27 -1.86,-3.75 6.93,-9.11 11.03,-11.08 0,0 0,0 0,0 1.06,-0.46 2.12,-0.91 3.18,-1.37 8.48,6.98 18.98,11.52 30.11,11.18z"/>
    <path class="fil3" d="M57.77 103.67c-8.17,6.49 -41.26,4.99 -42.9,1.23 -1.8,-3.64 6.71,-8.82 10.67,-10.73 0,0 0,0 0,0 1.03,-0.44 2.06,-0.88 3.08,-1.33 8.21,6.76 18.38,11.15 29.15,10.83z"/>
    <path class="fil4" d="M56.66 103.67c-7.9,6.28 -39.89,4.82 -41.48,1.19 -1.74,-3.51 6.49,-8.53 10.32,-10.37 0,0 0,0 0,0 0.99,-0.43 1.98,-0.86 2.98,-1.28 7.93,6.53 17.76,10.78 28.18,10.46z"/>
    <path class="fil5" d="M55.55 103.68c-7.63,6.06 -38.53,4.65 -40.06,1.14 -1.68,-3.39 6.27,-8.23 9.97,-10.01 0,0 0,0 0,0 0.95,-0.41 1.91,-0.83 2.87,-1.24 7.66,6.31 17.16,10.41 27.22,10.11z"/>
    <path class="fil6" d="M54.43 103.68c-7.35,5.85 -37.15,4.49 -38.63,1.11 -1.62,-3.27 6.04,-7.94 9.61,-9.66 0,0 0,0 0,0 0.93,-0.4 1.85,-0.8 2.77,-1.2 7.39,6.09 16.55,10.05 26.25,9.75z"/>
    <path class="fil7" d="M53.32 103.69c-7.08,5.63 -35.79,4.32 -37.21,1.06 -1.56,-3.15 5.82,-7.65 9.26,-9.3 0,0 0,0 0,0 0.89,-0.38 1.78,-0.77 2.67,-1.15 7.12,5.86 15.94,9.67 25.28,9.39z"/>
    <path class="fil8" d="M52.21 103.69c-6.82,5.42 -34.42,4.16 -35.79,1.03 -1.5,-3.03 5.6,-7.36 8.9,-8.95 0,0 0,0 0,0 0.86,-0.37 1.72,-0.74 2.57,-1.11 6.85,5.64 15.33,9.3 24.32,9.03z"/>
    <path class="fil9" d="M51.1 103.7c-6.55,5.19 -33.05,3.99 -34.37,0.98 -1.44,-2.91 5.37,-7.06 8.55,-8.59 0,0 0,0 0,0 0.82,-0.36 1.64,-0.71 2.47,-1.06 6.57,5.41 14.72,8.93 23.35,8.67z"/>
    <path class="fil10" d="M49.98 103.7c-6.27,4.98 -31.68,3.83 -32.94,0.94 -1.38,-2.78 5.15,-6.77 8.2,-8.23 0,0 0,0 0,0 0.78,-0.34 1.57,-0.68 2.36,-1.02 6.3,5.19 14.11,8.56 22.38,8.31z"/>
    <path class="fil11" d="M48.87 103.71c-6,4.76 -30.31,3.66 -31.52,0.9 -1.32,-2.67 4.93,-6.48 7.84,-7.88 0,0 0,0 0,0 0.76,-0.33 1.51,-0.65 2.27,-0.98 6.02,4.97 13.5,8.19 21.41,7.96z"/>
    <path class="fil12" d="M47.76 103.71c-5.73,4.55 -28.95,3.5 -30.1,0.86 -1.26,-2.55 4.71,-6.19 7.49,-7.52 0,0 0,0 0,0 0.72,-0.31 1.44,-0.62 2.16,-0.93 5.76,4.74 12.89,7.82 20.45,7.59z"/>
    <path class="fil13" d="M46.65 103.71c-5.46,4.34 -27.58,3.34 -28.68,0.83 -1.2,-2.43 4.48,-5.9 7.13,-7.18 0,0 0,0 0,0 0.69,-0.29 1.38,-0.59 2.06,-0.88 5.49,4.52 12.29,7.45 19.49,7.23z"/>
    <path class="fil14" d="M45.53 103.72c-5.19,4.12 -26.21,3.17 -27.25,0.78 -1.14,-2.31 4.26,-5.6 6.78,-6.81 0,0 0,0 0,0 0.65,-0.28 1.31,-0.57 1.96,-0.85 5.21,4.3 11.67,7.09 18.51,6.88z"/>
    <path class="fil15" d="M44.42 103.73c-4.92,3.9 -24.84,3 -25.83,0.73 -1.08,-2.18 4.04,-5.31 6.43,-6.45 0,0 0,0 0,0 0.61,-0.27 1.23,-0.54 1.85,-0.8 4.94,4.07 11.07,6.71 17.55,6.52z"/>
    <path class="fil16" d="M43.31 103.73c-4.65,3.69 -23.48,2.84 -24.41,0.7 -1.02,-2.07 3.82,-5.02 6.07,-6.11 0,0 0,0 0,0 0.59,-0.25 1.17,-0.5 1.75,-0.75 4.67,3.84 10.46,6.34 16.59,6.16z"/>
    <path class="fil17" d="M42.2 103.73c-4.38,3.48 -22.11,2.68 -22.99,0.66 -0.96,-1.94 3.6,-4.72 5.72,-5.74 0,0 0,0 0,0 0.55,-0.24 1.1,-0.48 1.65,-0.72 4.4,3.62 9.85,5.98 15.62,5.8z"/>
    <path class="fil18" d="M41.09 103.74c-4.11,3.26 -20.75,2.51 -21.57,0.62 -0.9,-1.83 3.37,-4.44 5.36,-5.4 0,0 0,0 0,0 0.52,-0.22 1.04,-0.44 1.55,-0.66 4.13,3.39 9.24,5.6 14.66,5.44z"/>
    <path class="fil19" d="M39.97 103.74c-3.83,3.05 -19.37,2.35 -20.14,0.58 -0.84,-1.7 3.15,-4.14 5.01,-5.04 0,0 0,0 0,0 0.48,-0.2 0.97,-0.41 1.45,-0.62 3.85,3.17 8.63,5.24 13.68,5.08z"/>
    <path class="fil20" d="M38.86 103.75c-3.56,2.83 -18,2.17 -18.72,0.53 -0.78,-1.58 2.93,-3.85 4.66,-4.68 0,0 0,0 0,0 0.45,-0.19 0.89,-0.38 1.34,-0.58 3.58,2.95 8.02,4.87 12.72,4.73z"/>
    <path class="fil21" d="M37.75 103.75c-3.3,2.62 -16.64,2.02 -17.3,0.5 -0.73,-1.47 2.7,-3.56 4.3,-4.33 0,0 0,0 0,0 0.42,-0.18 0.83,-0.35 1.24,-0.53 3.31,2.72 7.41,4.49 11.76,4.36z"/>
   </g>
   <path class="fil22" d="M36.64 103.76c-3.03,2.4 -15.27,1.84 -15.88,0.45 -0.67,-1.34 2.48,-3.26 3.95,-3.97l0 0 1.14 -0.49c3.04,2.5 6.8,4.13 10.79,4.01z"/>
   <path class="fil23" d="M60 103.66c-3.67,2.91 -12.05,4.31 -20.66,4.66 -0.97,-6.41 -7.1,-11.9 -14.95,-14.16 0.44,-0.24 0.86,-0.45 1.24,-0.63l0 0 3.29 -1.41c8.74,7.2 19.59,11.89 31.08,11.54z"/>
   <path class="fil24" style="mask:url(#id0)" d="M28.02 97.35c-1.5,0.89 -10.08,6.08 -12.13,6.14 0.29,-3.63 8.81,-8.59 11.48,-8.91l0.65 2.77z"/>
   <path class="fil1" d="M59.99 103.66c8.71,6.92 43.99,5.32 45.74,1.31 1.92,-3.87 -7.15,-9.41 -11.38,-11.44l0 0 -3.28 -1.41c-8.75,7.2 -19.59,11.89 -31.08,11.54z"/>
   <g>
    <path class="fil2" d="M61.1 103.66c8.44,6.71 42.63,5.16 44.32,1.27 1.86,-3.75 -6.93,-9.11 -11.02,-11.08 0,0 0,0 0,0 -1.06,-0.46 -2.12,-0.91 -3.18,-1.37 -8.48,6.98 -18.99,11.52 -30.12,11.18z"/>
    <path class="fil3" d="M62.22 103.67c8.17,6.49 41.25,4.99 42.89,1.23 1.8,-3.64 -6.7,-8.82 -10.67,-10.73 0,0 0,0 0,0 -1.02,-0.44 -2.05,-0.88 -3.08,-1.33 -8.2,6.76 -18.37,11.15 -29.14,10.83z"/>
    <path class="fil4" d="M63.33 103.67c7.9,6.28 39.89,4.82 41.47,1.19 1.74,-3.51 -6.48,-8.53 -10.31,-10.37 0,0 0,0 0,0 -1,-0.43 -1.99,-0.86 -2.98,-1.28 -7.93,6.53 -17.77,10.78 -28.18,10.46z"/>
    <path class="fil5" d="M64.44 103.68c7.63,6.06 38.52,4.65 40.05,1.14 1.68,-3.39 -6.26,-8.23 -9.96,-10.01 0,0 0,0 0,0 -0.96,-0.41 -1.92,-0.83 -2.87,-1.24 -7.67,6.31 -17.16,10.41 -27.22,10.11z"/>
    <path class="fil6" d="M65.55 103.68c7.36,5.85 37.16,4.49 38.63,1.11 1.62,-3.27 -6.04,-7.94 -9.6,-9.66 0,0 0,0 0,0 -0.93,-0.4 -1.85,-0.8 -2.78,-1.2 -7.39,6.09 -16.55,10.05 -26.25,9.75z"/>
    <path class="fil7" d="M66.67 103.69c7.08,5.63 35.78,4.32 37.2,1.06 1.56,-3.15 -5.81,-7.65 -9.25,-9.3 0,0 0,0 0,0 -0.89,-0.38 -1.78,-0.77 -2.67,-1.15 -7.12,5.86 -15.94,9.67 -25.28,9.39z"/>
    <path class="fil8" d="M67.78 103.69c6.81,5.42 34.42,4.16 35.78,1.03 1.5,-3.03 -5.59,-7.36 -8.9,-8.95 0,0 0,0 0,0 -0.86,-0.37 -1.71,-0.74 -2.57,-1.11 -6.84,5.64 -15.33,9.3 -24.31,9.03z"/>
    <path class="fil9" d="M68.89 103.7c6.54,5.19 33.05,3.99 34.36,0.98 1.44,-2.91 -5.37,-7.06 -8.54,-8.59 0,0 0,0 0,0 -0.83,-0.36 -1.65,-0.71 -2.47,-1.06 -6.57,5.41 -14.72,8.93 -23.35,8.67z"/>
    <path class="fil10" d="M70 103.7c6.28,4.98 31.68,3.83 32.94,0.94 1.39,-2.78 -5.15,-6.77 -8.19,-8.23 0,0 0,0 0,0 -0.79,-0.34 -1.58,-0.68 -2.36,-1.02 -6.31,5.19 -14.12,8.56 -22.39,8.31z"/>
    <path class="fil11" d="M71.11 103.71c6.01,4.76 30.32,3.66 31.53,0.9 1.32,-2.67 -4.93,-6.48 -7.85,-7.88 0,0 0,0 0,0 -0.75,-0.33 -1.5,-0.65 -2.26,-0.98 -6.03,4.97 -13.5,8.19 -21.42,7.96z"/>
    <path class="fil12" d="M72.23 103.71c5.73,4.55 28.94,3.5 30.09,0.86 1.27,-2.55 -4.7,-6.19 -7.48,-7.52 0,0 0,0 0,0 -0.72,-0.31 -1.44,-0.62 -2.16,-0.93 -5.76,4.74 -12.89,7.82 -20.45,7.59z"/>
    <path class="fil13" d="M73.34 103.71c5.46,4.34 27.58,3.34 28.68,0.83 1.2,-2.43 -4.49,-5.9 -7.14,-7.18 0,0 0,0 0,0 -0.68,-0.29 -1.37,-0.59 -2.06,-0.88 -5.48,4.52 -12.28,7.45 -19.48,7.23z"/>
    <path class="fil14" d="M74.45 103.72c5.19,4.12 26.21,3.17 27.26,0.78 1.14,-2.31 -4.27,-5.6 -6.78,-6.81 0,0 0,0 0,0 -0.66,-0.28 -1.31,-0.57 -1.96,-0.85 -5.21,4.3 -11.68,7.09 -18.52,6.88z"/>
    <path class="fil15" d="M75.56 103.73c4.92,3.9 24.85,3 25.84,0.73 1.08,-2.18 -4.04,-5.31 -6.43,-6.45 0,0 0,0 0,0 -0.62,-0.27 -1.24,-0.54 -1.85,-0.8 -4.95,4.07 -11.07,6.71 -17.56,6.52z"/>
    <path class="fil16" d="M76.68 103.73c4.64,3.69 23.47,2.84 24.41,0.7 1.02,-2.07 -3.82,-5.02 -6.08,-6.11 0,0 0,0 0,0 -0.58,-0.25 -1.16,-0.5 -1.75,-0.75 -4.67,3.84 -10.45,6.34 -16.58,6.16z"/>
    <path class="fil17" d="M77.79 103.73c4.38,3.48 22.11,2.68 22.98,0.66 0.97,-1.94 -3.59,-4.72 -5.71,-5.74 0,0 0,0 0,0 -0.55,-0.24 -1.1,-0.48 -1.65,-0.72 -4.4,3.62 -9.85,5.98 -15.62,5.8z"/>
    <path class="fil18" d="M78.9 103.74c4.11,3.26 20.74,2.51 21.57,0.62 0.9,-1.83 -3.38,-4.44 -5.37,-5.4 0,0 0,0 0,0 -0.51,-0.22 -1.03,-0.44 -1.55,-0.66 -4.12,3.39 -9.23,5.6 -14.65,5.44z"/>
    <path class="fil19" d="M80.01 103.74c3.84,3.05 19.38,2.35 20.15,0.58 0.84,-1.7 -3.15,-4.14 -5.01,-5.04 0,0 0,0 0,0 -0.49,-0.2 -0.97,-0.41 -1.45,-0.62 -3.85,3.17 -8.63,5.24 -13.69,5.08z"/>
    <path class="fil20" d="M81.12 103.75c3.57,2.83 18.01,2.17 18.73,0.53 0.78,-1.58 -2.93,-3.85 -4.66,-4.68 0,0 0,0 0,0 -0.45,-0.19 -0.9,-0.38 -1.34,-0.58 -3.59,2.95 -8.02,4.87 -12.73,4.73z"/>
    <path class="fil21" d="M82.24 103.75c3.29,2.62 16.64,2.02 17.3,0.5 0.72,-1.47 -2.71,-3.56 -4.31,-4.33 0,0 0,0 0,0 -0.41,-0.18 -0.82,-0.35 -1.24,-0.53 -3.31,2.72 -7.41,4.49 -11.75,4.36z"/>
   </g>
   <path class="fil22" d="M83.35 103.76c3.02,2.4 15.27,1.84 15.88,0.45 0.66,-1.34 -2.49,-3.26 -3.95,-3.97l0 0 -1.14 -0.49c-3.04,2.5 -6.8,4.13 -10.79,4.01z"/>
   <path class="fil23" d="M59.99 103.66c3.67,2.91 12.05,4.31 20.66,4.66 0.97,-6.41 7.1,-11.9 14.95,-14.16 -0.45,-0.24 -0.87,-0.45 -1.25,-0.63l0 0 -3.28 -1.41c-8.75,7.2 -19.59,11.89 -31.08,11.54z"/>
   <path class="fil24" style="mask:url(#id2)" d="M91.97 97.35c1.49,0.89 10.08,6.08 12.13,6.14 -0.3,-3.63 -8.82,-8.59 -11.48,-8.91l-0.65 2.77z"/>
   <path class="fil25" d="M0 84.7c-0.01,4.32 0.7,7.68 6.55,6.59l0 0c34.25,-6.37 55.94,-33.27 53.91,-68.43 -34.96,2.03 -60.39,27.26 -60.46,61.84l0 0z"/>
   <path class="fil26" d="M120 84.7c0.01,4.32 -0.7,7.68 -6.55,6.59l0 0c-34.25,-6.37 -55.94,-33.27 -53.91,-68.43 34.96,2.03 60.39,27.26 60.46,61.84l0 0z"/>
   <ellipse class="fil0" cx="59.97" cy="57.91" rx="45.97" ry="46.32"/>
   <path class="fil27" d="M59.99 12.32c25.12,0 45.48,20.51 45.48,45.82 0,25.3 -20.36,45.81 -45.48,45.81 -25.11,0 -45.47,-20.51 -45.47,-45.81 0,-25.31 20.36,-45.82 45.47,-45.82z"/>
   <path class="fil28" d="M60.02 13.05c24.83,0 44.97,20.29 44.97,45.31 0,25.03 -20.14,45.32 -44.97,45.32 -24.84,0 -44.97,-20.29 -44.97,-45.32 0,-25.02 20.13,-45.31 44.97,-45.31z"/>
   <path class="fil29 str0" d="M60.04 13.79c24.56,0 44.47,20.06 44.47,44.8 0,24.75 -19.91,44.81 -44.47,44.81 -24.56,0 -44.47,-20.06 -44.47,-44.81 0,-24.74 19.91,-44.8 44.47,-44.8z"/>
   <path class="fil30" d="M60.06 14.52c24.29,0 43.98,19.84 43.98,44.3 0,24.47 -19.69,44.31 -43.98,44.31 -24.28,0 -43.97,-19.84 -43.97,-44.31 0,-24.46 19.69,-44.3 43.97,-44.3z"/>
   <path class="fil31" d="M60.09 15.25c24.01,0 43.47,19.61 43.47,43.8 0,24.19 -19.46,43.8 -43.47,43.8 -24.01,0 -43.47,-19.61 -43.47,-43.8 0,-24.19 19.46,-43.8 43.47,-43.8z"/>
   <path class="fil32" d="M60.11 15.99c23.73,0 42.97,19.38 42.97,43.29 0,23.92 -19.24,43.3 -42.97,43.3 -23.73,0 -42.97,-19.38 -42.97,-43.3 0,-23.91 19.24,-43.29 42.97,-43.29z"/>
   <path class="fil33" d="M60.13 16.72c23.46,0 42.48,19.16 42.48,42.79 0,23.64 -19.02,42.8 -42.48,42.8 -23.45,0 -42.47,-19.16 -42.47,-42.8 0,-23.63 19.02,-42.79 42.47,-42.79z"/>
   <path class="fil34" d="M60.16 17.45c23.18,0 41.97,18.94 41.97,42.29 0,23.36 -18.79,42.29 -41.97,42.29 -23.18,0 -41.97,-18.93 -41.97,-42.29 0,-23.35 18.79,-42.29 41.97,-42.29z"/>
   <path class="fil35" d="M60.18 18.19c22.91,0 41.47,18.71 41.47,41.78 0,23.08 -18.56,41.79 -41.47,41.79 -22.9,0 -41.47,-18.71 -41.47,-41.79 0,-23.07 18.57,-41.78 41.47,-41.78z"/>
   <path class="fil36" d="M60.21 18.92c22.62,0 40.97,18.48 40.97,41.28 0,22.8 -18.35,41.28 -40.97,41.28 -22.63,0 -40.98,-18.48 -40.98,-41.28 0,-22.8 18.35,-41.28 40.98,-41.28z"/>
   <path class="fil37" d="M60.23 19.65c22.35,0 40.47,18.26 40.47,40.78 0,22.52 -18.12,40.78 -40.47,40.78 -22.35,0 -40.47,-18.26 -40.47,-40.78 0,-22.52 18.12,-40.78 40.47,-40.78z"/>
   <path class="fil38" d="M60.25 20.39c22.08,0 39.97,18.03 39.97,40.27 0,22.24 -17.89,40.28 -39.97,40.28 -22.07,0 -39.97,-18.04 -39.97,-40.28 0,-22.24 17.9,-40.27 39.97,-40.27z"/>
   <path class="fil39" d="M60.28 21.12c21.8,0 39.47,17.81 39.47,39.77 0,21.97 -17.67,39.77 -39.47,39.77 -21.8,0 -39.48,-17.8 -39.48,-39.77 0,-21.96 17.68,-39.77 39.48,-39.77z"/>
   <path class="fil40" d="M60.3 21.85c21.52,0 38.97,17.58 38.97,39.27 0,21.69 -17.45,39.27 -38.97,39.27 -21.52,0 -38.97,-17.58 -38.97,-39.27 0,-21.69 17.45,-39.27 38.97,-39.27z"/>
   <path class="fil41" d="M60.32 22.59c21.25,0 38.48,17.35 38.48,38.76 0,21.41 -17.23,38.77 -38.48,38.77 -21.25,0 -38.47,-17.36 -38.47,-38.77 0,-21.41 17.22,-38.76 38.47,-38.76z"/>
   <path class="fil42" d="M60.35 23.32c20.97,0 37.97,17.13 37.97,38.26 0,21.13 -17,38.26 -37.97,38.26 -20.98,0 -37.98,-17.13 -37.98,-38.26 0,-21.13 17,-38.26 37.98,-38.26z"/>
   <path class="fil43" d="M60.37 24.05c20.69,0 37.47,16.91 37.47,37.76 0,20.85 -16.78,37.76 -37.47,37.76 -20.7,0 -37.47,-16.91 -37.47,-37.76 0,-20.85 16.77,-37.76 37.47,-37.76z"/>
   <path class="fil44" d="M60.39 24.79c20.42,0 36.98,16.68 36.98,37.25 0,20.58 -16.56,37.25 -36.98,37.25 -20.42,0 -36.97,-16.67 -36.97,-37.25 0,-20.57 16.55,-37.25 36.97,-37.25z"/>
   <path class="fil45" d="M60.42 25.52c20.14,0 36.47,16.45 36.47,36.75 0,20.3 -16.33,36.75 -36.47,36.75 -20.15,0 -36.48,-16.45 -36.48,-36.75 0,-20.3 16.33,-36.75 36.48,-36.75z"/>
   <path class="fil46" d="M60.44 26.25c19.87,0 35.97,16.23 35.97,36.25 0,20.02 -16.1,36.25 -35.97,36.25 -19.87,0 -35.97,-16.23 -35.97,-36.25 0,-20.02 16.1,-36.25 35.97,-36.25z"/>
   <path class="fil47" d="M60.46 26.99c19.59,0 35.48,16 35.48,35.74 0,19.74 -15.89,35.74 -35.48,35.74 -19.59,0 -35.47,-16 -35.47,-35.74 0,-19.74 15.88,-35.74 35.47,-35.74z"/>
   <path class="fil48" d="M60.49 27.72c19.31,0 34.97,15.78 34.97,35.24 0,19.46 -15.66,35.24 -34.97,35.24 -19.32,0 -34.98,-15.78 -34.98,-35.24 0,-19.46 15.66,-35.24 34.98,-35.24z"/>
   <path class="fil49" d="M60.51 28.45c19.04,0 34.47,15.56 34.47,34.74 0,19.18 -15.43,34.73 -34.47,34.73 -19.04,0 -34.47,-15.55 -34.47,-34.73 0,-19.18 15.43,-34.74 34.47,-34.74z"/>
   <path class="fil50" d="M60.53 29.19c18.77,0 33.98,15.32 33.98,34.23 0,18.9 -15.21,34.23 -33.98,34.23 -18.76,0 -33.97,-15.33 -33.97,-34.23 0,-18.91 15.21,-34.23 33.97,-34.23z"/>
   <path class="fil51" d="M60.56 29.92c18.48,0 33.47,15.1 33.47,33.73 0,18.63 -14.99,33.73 -33.47,33.73 -18.49,0 -33.48,-15.1 -33.48,-33.73 0,-18.63 14.99,-33.73 33.48,-33.73z"/>
   <path class="fil52" d="M60.58 30.65c18.21,0 32.97,14.88 32.97,33.23 0,18.35 -14.76,33.22 -32.97,33.22 -18.21,0 -32.97,-14.87 -32.97,-33.22 0,-18.35 14.76,-33.23 32.97,-33.23z"/>
   <path class="fil53" d="M60.6 31.39c17.94,0 32.48,14.65 32.48,32.72 0,18.07 -14.54,32.72 -32.48,32.72 -17.93,0 -32.47,-14.65 -32.47,-32.72 0,-18.07 14.54,-32.72 32.47,-32.72z"/>
   <path class="fil54" d="M60.63 32.12c17.66,0 31.97,14.42 31.97,32.22 0,17.79 -14.31,32.21 -31.97,32.21 -17.66,0 -31.98,-14.42 -31.98,-32.21 0,-17.8 14.32,-32.22 31.98,-32.22z"/>
   <path class="fil55" d="M60.65 32.85c17.38,0 31.48,14.2 31.48,31.72 0,17.51 -14.1,31.71 -31.48,31.71 -17.38,0 -31.48,-14.2 -31.48,-31.71 0,-17.52 14.1,-31.72 31.48,-31.72z"/>
   <path class="fil56" d="M60.67 33.59c17.11,0 30.98,13.97 30.98,31.21 0,17.23 -13.87,31.21 -30.98,31.21 -17.1,0 -30.97,-13.98 -30.97,-31.21 0,-17.24 13.87,-31.21 30.97,-31.21z"/>
   <path class="fil57" d="M60.7 34.32c16.83,0 30.47,13.75 30.47,30.71 0,16.95 -13.64,30.7 -30.47,30.7 -16.83,0 -30.48,-13.75 -30.48,-30.7 0,-16.96 13.65,-30.71 30.48,-30.71z"/>
   <path class="fil58" d="M60.72 35.05c16.56,0 29.98,13.53 29.98,30.21 0,16.68 -13.42,30.2 -29.98,30.2 -16.55,0 -29.98,-13.52 -29.98,-30.2 0,-16.68 13.43,-30.21 29.98,-30.21z"/>
   <path class="fil59" d="M60.74 35.79c16.28,0 29.48,13.29 29.48,29.7 0,16.4 -13.2,29.69 -29.48,29.69 -16.28,0 -29.47,-13.29 -29.47,-29.69 0,-16.41 13.19,-29.7 29.47,-29.7z"/>
   <path class="fil60" d="M60.77 36.52c16,0 28.97,13.07 28.97,29.2 0,16.12 -12.97,29.19 -28.97,29.19 -16.01,0 -28.98,-13.07 -28.98,-29.19 0,-16.13 12.97,-29.2 28.98,-29.2z"/>
   <path class="fil61" d="M60.79 37.25c15.73,0 28.48,12.85 28.48,28.69 0,15.85 -12.75,28.7 -28.48,28.7 -15.73,0 -28.48,-12.85 -28.48,-28.7 0,-15.84 12.75,-28.69 28.48,-28.69z"/>
   <path class="fil62" d="M60.81 37.99c15.46,0 27.98,12.62 27.98,28.18 0,15.57 -12.52,28.19 -27.98,28.19 -15.45,0 -27.97,-12.62 -27.97,-28.19 0,-15.56 12.52,-28.18 27.97,-28.18z"/>
   <path class="fil63" d="M60.84 38.72c15.17,0 27.47,12.4 27.47,27.69 0,15.28 -12.3,27.68 -27.47,27.68 -15.18,0 -27.48,-12.4 -27.48,-27.68 0,-15.29 12.3,-27.69 27.48,-27.69z"/>
   <path class="fil64" d="M60.86 39.45c14.9,0 26.98,12.17 26.98,27.18 0,15.02 -12.08,27.19 -26.98,27.19 -14.9,0 -26.98,-12.17 -26.98,-27.19 0,-15.01 12.08,-27.18 26.98,-27.18z"/>
   <path class="fil65" d="M60.88 40.19c14.63,0 26.48,11.94 26.48,26.67 0,14.74 -11.85,26.68 -26.48,26.68 -14.62,0 -26.47,-11.94 -26.47,-26.68 0,-14.73 11.85,-26.67 26.47,-26.67z"/>
   <path class="fil66" d="M60.91 40.92c14.34,0 25.97,11.72 25.97,26.17 0,14.46 -11.63,26.18 -25.97,26.18 -14.35,0 -25.98,-11.72 -25.98,-26.18 0,-14.45 11.63,-26.17 25.98,-26.17z"/>
   <path class="fil67" d="M60.93 41.65c14.07,0 25.48,11.5 25.48,25.67 0,14.18 -11.41,25.67 -25.48,25.67 -14.07,0 -25.47,-11.49 -25.47,-25.67 0,-14.17 11.4,-25.67 25.47,-25.67z"/>
   <path class="fil68" d="M60.96 42.39c13.79,0 24.97,11.26 24.97,25.16 0,13.9 -11.18,25.17 -24.97,25.17 -13.8,0 -24.98,-11.27 -24.98,-25.17 0,-13.9 11.18,-25.16 24.98,-25.16z"/>
   <path class="fil69" d="M60.98 43.12c13.52,0 24.48,11.04 24.48,24.66 0,13.62 -10.96,24.67 -24.48,24.67 -13.52,0 -24.48,-11.05 -24.48,-24.67 0,-13.62 10.96,-24.66 24.48,-24.66z"/>
   <path class="fil70" d="M61 43.85c13.24,0 23.98,10.82 23.98,24.16 0,13.34 -10.74,24.16 -23.98,24.16 -13.24,0 -23.98,-10.82 -23.98,-24.16 0,-13.34 10.74,-24.16 23.98,-24.16z"/>
   <path class="fil71" d="M61.03 44.59c12.96,0 23.47,10.59 23.47,23.65 0,13.07 -10.51,23.66 -23.47,23.66 -12.97,0 -23.48,-10.59 -23.48,-23.66 0,-13.06 10.51,-23.65 23.48,-23.65z"/>
   <path class="fil72" d="M61.05 45.32c12.69,0 22.98,10.37 22.98,23.15 0,12.79 -10.29,23.15 -22.98,23.15 -12.69,0 -22.98,-10.36 -22.98,-23.15 0,-12.78 10.29,-23.15 22.98,-23.15z"/>
   <path class="fil73" d="M61.07 46.05c12.42,0 22.48,10.14 22.48,22.65 0,12.51 -10.06,22.65 -22.48,22.65 -12.41,0 -22.48,-10.14 -22.48,-22.65 0,-12.51 10.07,-22.65 22.48,-22.65z"/>
   <path class="fil74" d="M61.1 46.79c12.13,0 21.97,9.91 21.97,22.14 0,12.23 -9.84,22.15 -21.97,22.15 -12.14,0 -21.98,-9.92 -21.98,-22.15 0,-12.23 9.84,-22.14 21.98,-22.14z"/>
   <path class="fil75" d="M61.12 47.52c11.86,0 21.48,9.69 21.48,21.64 0,11.95 -9.62,21.64 -21.48,21.64 -11.86,0 -21.48,-9.69 -21.48,-21.64 0,-11.95 9.62,-21.64 21.48,-21.64z"/>
   <path class="fil76" d="M61.14 48.25c11.59,0 20.98,9.47 20.98,21.14 0,11.67 -9.39,21.14 -20.98,21.14 -11.58,0 -20.98,-9.47 -20.98,-21.14 0,-11.67 9.4,-21.14 20.98,-21.14z"/>
   <ellipse class="fil77" cx="61.17" cy="69.62" rx="20.48" ry="20.63"/>
   <path class="fil78" style="mask:url(#id4)" d="M59.27 11.59c23.36,0 42.29,18.8 42.29,42 0,23.2 -18.93,42 -42.29,42 -23.35,0 -42.29,-18.8 -42.29,-42 0,-23.2 18.94,-42 42.29,-42z"/>
   <path class="fil79" d="M89.45 37.91c0,10.19 -8.27,18.44 -18.45,18.44 -10.19,0 -18.46,-8.25 -18.46,-18.44 0,-10.2 8.27,-18.47 18.46,-18.47 10.18,0 18.45,8.27 18.45,18.47z"/>
   <path class="fil79" d="M66.65 37.91c0,10.19 -8.27,18.44 -18.46,18.44 -10.19,0 -18.45,-8.25 -18.45,-18.44 0,-10.2 8.26,-18.45 18.45,-18.45 10.19,0 18.46,8.25 18.46,18.45z"/>
   <path class="fil80" d="M87.18 95.24c-3.76,2.79 -7.95,5.01 -12.46,6.55l-0.02 0.01c-0.13,0.04 -0.27,0.08 -0.4,0.13 -4.55,1.46 -9.4,2.27 -14.43,2.29 -10.15,-0.02 -19.53,-3.36 -27.12,-8.99 -2.09,-3.93 -3.29,-8.59 -3.29,-13.91l0 0c0,-17.28 14.69,-34.67 30.13,-34.67 15.44,0 30.89,17.39 30.89,34.67 0,5.32 -1.21,9.99 -3.3,13.92z"/>
   <path class="fil81" d="M70.77 49.71c1.46,0.84 1.46,2.19 0,3.02 -13.13,7.49 -9.69,7.49 -22.83,0 -1.45,-0.83 -1.45,-2.18 0,-3.02 13.03,-5.7 9.6,-5.84 22.83,0z"/>
   <g>
    <path class="fil2" d="M70.5 49.77c1.43,0.81 1.43,2.13 0,2.94 -12.8,7.31 -9.45,7.31 -22.27,0 -1.42,-0.81 -1.42,-2.13 0,-2.94 12.71,-5.57 9.36,-5.7 22.27,0z"/>
    <path class="fil3" d="M70.23 49.82c1.39,0.79 1.39,2.08 0,2.87 -12.48,7.13 -9.21,7.13 -21.7,0 -1.39,-0.79 -1.39,-2.08 0,-2.87 12.38,-5.42 9.12,-5.55 21.7,0z"/>
    <path class="fil4" d="M69.97 49.88c1.35,0.77 1.35,2.02 0,2.79 -12.17,6.95 -8.99,6.94 -21.15,0 -1.35,-0.77 -1.35,-2.02 0,-2.79 12.06,-5.29 8.88,-5.42 21.15,0z"/>
    <path class="fil5" d="M69.7 49.93c1.31,0.75 1.31,1.97 0,2.73 -11.85,6.75 -8.75,6.75 -20.59,0 -1.32,-0.76 -1.32,-1.98 0,-2.73 11.75,-5.15 8.65,-5.27 20.59,0z"/>
    <path class="fil6" d="M69.43 49.99c1.28,0.73 1.28,1.91 0,2.65 -11.52,6.57 -8.51,6.57 -20.03,0 -1.28,-0.74 -1.28,-1.92 0,-2.65 11.43,-5.01 8.41,-5.13 20.03,0z"/>
    <path class="fil7" d="M69.16 50.04c1.24,0.71 1.24,1.87 0,2.58 -11.2,6.39 -8.27,6.39 -19.47,0 -1.25,-0.71 -1.25,-1.87 0,-2.58 11.11,-4.87 8.18,-4.98 19.47,0z"/>
    <path class="fil8" d="M68.89 50.1c1.21,0.69 1.21,1.81 0,2.5 -10.88,6.21 -8.03,6.2 -18.91,0 -1.21,-0.69 -1.21,-1.81 0,-2.5 10.79,-4.73 7.95,-4.84 18.91,0z"/>
    <path class="fil9" d="M68.62 50.15c1.18,0.67 1.18,1.76 0,2.43 -10.55,6.02 -7.79,6.02 -18.35,0 -1.17,-0.67 -1.17,-1.76 0,-2.43 10.47,-4.59 7.71,-4.7 18.35,0z"/>
    <path class="fil10" d="M68.35 50.2c1.14,0.66 1.14,1.71 0,2.36 -10.23,5.84 -7.55,5.84 -17.79,0 -1.14,-0.65 -1.14,-1.7 0,-2.36 10.15,-4.44 7.48,-4.55 17.79,0z"/>
    <path class="fil11" d="M68.08 50.26c1.11,0.63 1.11,1.65 0,2.28 -9.91,5.66 -7.31,5.66 -17.23,0 -1.1,-0.63 -1.1,-1.65 0,-2.28 9.83,-4.31 7.24,-4.41 17.23,0z"/>
    <path class="fil12" d="M67.82 50.31c1.06,0.61 1.06,1.6 0,2.21 -9.6,5.47 -7.09,5.47 -16.68,0 -1.06,-0.61 -1.06,-1.6 0,-2.21 9.52,-4.16 7.01,-4.26 16.68,0z"/>
    <path class="fil13" d="M67.55 50.37c1.03,0.59 1.03,1.54 0,2.13 -9.27,5.29 -6.85,5.29 -16.12,0 -1.03,-0.59 -1.03,-1.54 0,-2.13 9.2,-4.03 6.77,-4.12 16.12,0z"/>
    <path class="fil14" d="M67.28 50.42c0.99,0.57 0.99,1.5 0,2.06 -8.95,5.11 -6.61,5.11 -15.56,0 -0.99,-0.56 -0.99,-1.49 0,-2.06 8.88,-3.88 6.54,-3.97 15.56,0z"/>
    <path class="fil15" d="M67.01 50.48c0.96,0.55 0.96,1.44 0,1.98 -8.63,4.93 -6.37,4.92 -15,0 -0.95,-0.54 -0.95,-1.43 0,-1.98 8.56,-3.75 6.3,-3.84 15,0z"/>
    <path class="fil16" d="M66.74 50.53c0.92,0.53 0.92,1.39 0,1.91 -8.3,4.74 -6.13,4.74 -14.44,0 -0.92,-0.52 -0.92,-1.38 0,-1.91 8.24,-3.6 6.07,-3.69 14.44,0z"/>
    <path class="fil17" d="M66.47 50.59c0.89,0.51 0.89,1.33 0,1.84 -7.98,4.55 -5.89,4.55 -13.88,0 -0.88,-0.51 -0.88,-1.33 0,-1.84 7.92,-3.47 5.84,-3.55 13.88,0z"/>
    <path class="fil18" d="M66.2 50.64c0.85,0.49 0.85,1.28 0,1.77 -7.66,4.37 -5.65,4.37 -13.32,0 -0.85,-0.49 -0.85,-1.28 0,-1.77 7.6,-3.32 5.6,-3.4 13.32,0z"/>
    <path class="fil19" d="M65.94 50.7c0.81,0.47 0.81,1.22 0,1.69 -7.35,4.19 -5.42,4.18 -12.77,0 -0.81,-0.47 -0.81,-1.22 0,-1.69 7.28,-3.19 5.37,-3.26 12.77,0z"/>
    <path class="fil20" d="M65.67 50.75c0.78,0.45 0.78,1.17 0,1.62 -7.02,4 -5.19,4 -12.21,0 -0.77,-0.45 -0.77,-1.17 0,-1.62 6.97,-3.05 5.13,-3.12 12.21,0z"/>
    <path class="fil21" d="M65.4 50.81c0.74,0.42 0.74,1.11 0,1.54 -6.7,3.82 -4.95,3.82 -11.64,0 -0.75,-0.43 -0.75,-1.12 0,-1.54 6.64,-2.91 4.89,-2.98 11.64,0z"/>
   </g>
   <path class="fil82" d="M65.13 50.86c0.71,0.41 0.71,1.06 0,1.47 -6.38,3.64 -4.71,3.64 -11.08,0 -0.71,-0.41 -0.71,-1.06 0,-1.47 6.32,-2.77 4.65,-2.83 11.08,0z"/>
   <path class="fil83" style="mask:url(#id6)" d="M56.61 47.26c0,0 -6.44,2.8 -6.83,2.96 -0.4,0.16 -1.51,1 0.34,1.31 2.19,0.38 4.07,0.8 4.44,0.84 0.51,0.05 1.17,0.34 1.34,-0.91 0.18,-1.2 1.21,-2.82 1.78,-3.34 0.55,-0.49 0.83,-1.74 -1.07,-0.86z"/>
   <path class="fil84" d="M68.96 52.37l-8.64 1.95 -8.64 -1.2 -3.5 -1.5 9.17 5.23c1.1,0.63 3.11,0.63 4.21,0l8.73 -5.08 -1.33 0.6z"/>
   <path class="fil85" d="M59.36 53.28c-4.01,0 -7.81,-0.62 -11.21,-1.72 3.19,2.01 7.05,3.19 11.21,3.19 4.16,0 8.02,-1.18 11.22,-3.19 -3.41,1.1 -7.21,1.72 -11.22,1.72z"/>
   <path class="fil86" d="M107.92 50c0.35,5.03 0.32,9.96 -0.68,14.66 5.79,6.02 9.47,13.43 10.4,22.64 2.8,-13.51 -2.39,-25.59 -9.72,-37.3z"/>
   <path class="fil87" d="M12.75 50.66c-0.36,5.03 -0.32,9.96 0.68,14.66 -5.79,6.02 -9.47,13.44 -10.41,22.64 -2.79,-13.51 2.4,-25.59 9.73,-37.3z"/>
   <path class="fil27" d="M70.83 30.59c4.2,0 7.59,3.39 7.59,7.58 0,4.19 -3.39,7.59 -7.59,7.59 -4.18,0 -7.58,-3.4 -7.58,-7.59 0,-4.19 3.4,-7.58 7.58,-7.58zm-4.56 3.53l-0.05 0.06c-1.09,1.24 -1.58,2.8 -1.49,4.33 0.1,1.53 0.78,3.02 2.01,4.14l0.07 0.06c1.28,1.12 2.89,1.63 4.47,1.55 0.23,-0.02 0.46,-0.04 0.68,-0.08 -0.2,-0.02 -0.4,-0.05 -0.6,-0.09 -1.37,-0.3 -2.63,-1.13 -3.45,-2.4 -0.82,-1.28 -1.05,-2.77 -0.75,-4.14 0.3,-1.38 1.13,-2.64 2.4,-3.46 1.28,-0.82 2.77,-1.04 4.14,-0.74 0.59,0.12 1.16,0.35 1.68,0.66 -0.1,-0.1 -0.21,-0.2 -0.32,-0.3l-0.06 -0.06c-1.28,-1.13 -2.9,-1.63 -4.48,-1.55 -1.58,0.09 -3.12,0.77 -4.25,2.02zm9.02 7.02c0.42,0.64 0.23,1.5 -0.41,1.91 -0.64,0.41 -1.5,0.23 -1.91,-0.42 -0.42,-0.64 -0.23,-1.49 0.41,-1.91 0.65,-0.41 1.5,-0.22 1.91,0.42zm-26.12 -10.55c4.18,0 7.58,3.39 7.58,7.58 0,4.19 -3.4,7.59 -7.58,7.59 -4.2,0 -7.59,-3.4 -7.59,-7.59 0,-4.19 3.39,-7.58 7.59,-7.58zm-4.57 3.53l-0.05 0.06c-1.09,1.24 -1.58,2.8 -1.49,4.33 0.1,1.53 0.78,3.02 2.01,4.14l0.07 0.06c1.28,1.12 2.9,1.63 4.47,1.55 0.23,-0.02 0.46,-0.04 0.68,-0.08 -0.2,-0.02 -0.4,-0.05 -0.6,-0.09 -1.37,-0.3 -2.63,-1.13 -3.45,-2.4 -0.82,-1.28 -1.05,-2.77 -0.75,-4.14 0.3,-1.38 1.13,-2.64 2.4,-3.46 1.28,-0.82 2.77,-1.04 4.14,-0.74 0.59,0.12 1.16,0.35 1.68,0.66 -0.1,-0.1 -0.21,-0.2 -0.32,-0.3l-0.06 -0.06c-1.28,-1.13 -2.9,-1.63 -4.48,-1.55 -1.58,0.09 -3.12,0.77 -4.25,2.02zm9.02 7.02c0.42,0.64 0.23,1.5 -0.41,1.91 -0.64,0.41 -1.5,0.23 -1.91,-0.42 -0.42,-0.64 -0.23,-1.49 0.41,-1.91 0.65,-0.41 1.5,-0.22 1.91,0.42z"/>
  </g>
 </g>
</svg>
